<svg id="Layer_2" data-name="Layer 2" xmlns="http://www.w3.org/2000/svg" xmlns:xlink="http://www.w3.org/1999/xlink" viewBox="0 0 400 300" width="406" height="306" class="illustration styles_illustrationTablet__1DWOa"><defs><linearGradient id="linear-gradient" x1="308.7" y1="207.1" x2="359.52" y2="171.98" gradientUnits="userSpaceOnUse"><stop offset="0.01" stop-color="#ff9385"></stop><stop offset="0.99" stop-color="#7f3800"></stop></linearGradient><linearGradient id="linear-gradient-2" x1="128.81" y1="197.53" x2="169.13" y2="169.66" xlink:href="#linear-gradient"></linearGradient><linearGradient id="linear-gradient-3" x1="188.92" y1="241.55" x2="229.24" y2="213.69" xlink:href="#linear-gradient"></linearGradient></defs><title>PP</title><path d="M195.22,288.83,15.5,182.61c-5.72-3.21-10.63-8.49-5.05-11.94l180.37-104c2.71-1.68,6.82-2.78,9.57-1.18L389,175c5.72,3.32,6.75,12.6,1,15.93L218.91,288.66A23.9,23.9,0,0,1,195.22,288.83Z" fill="#ff9385"></path><path d="M335.76,184.82,282,205.44a232.85,232.85,0,0,1,26,15.81L354,195.92C345.44,190.84,344.17,190.07,335.76,184.82Z" fill="url(#linear-gradient)"></path><path d="M132,209.72l50.74-30.17-9.43-1.18-3.85-9.51-18.71-2.66-44.73,27.71A232.85,232.85,0,0,1,132,209.72Z" fill="url(#linear-gradient-2)"></path><path d="M99.72,186.32,95,184.38s1.93-1.79,1.93-1.79Z" fill="#6c8fc1"></path><polygon points="232.37 13.05 227.47 11.09 228.29 13.69 231.39 13.83 232.37 13.05" fill="#6c8fc1"></polygon><path d="M93,95.29l-.14,85.65a3.87,3.87,0,0,0,5.76,3.38l126.13-70.59a8.4,8.4,0,0,0,4.29-7.12l2.31-90.42a5.11,5.11,0,0,0-7.73-4.52L98,86.57A10.17,10.17,0,0,0,93,95.29Z" fill="#68e1fd"></path><path d="M93,95.29l-.14,85.65a3.87,3.87,0,0,0,5.76,3.38l126.13-70.59a8.4,8.4,0,0,0,4.29-7.12l2.31-90.42a5.11,5.11,0,0,0-7.73-4.52L98,86.57A10.17,10.17,0,0,0,93,95.29Z" opacity="0.1"></path><path d="M189.74,124.05,176,144.18s-1.9,5.52,4.47,9.78S203,166.67,203,166.67l-32.23,20.15-24.69-14s-11-4.08,1.45-26.8" fill="#68e1fd"></path><path d="M189.74,124.05,176,144.18s-1.9,5.52,4.47,9.78S203,166.67,203,166.67l-32.23,20.15-24.69-14s-11-4.08,1.45-26.8" fill="#68e1fd"></path><path d="M189.74,124.05,176,144.18s-1.9,5.52,4.47,9.78S203,166.67,203,166.67l-32.23,20.15-24.69-14s-11-4.08,1.45-26.8" opacity="0.3"></path><path d="M97.06,96.95l-.14,85.65a3.87,3.87,0,0,0,5.76,3.38l126.13-70.59a8.4,8.4,0,0,0,4.29-7.12l2.31-90.42a5.11,5.11,0,0,0-7.73-4.52L102,88.23A10.17,10.17,0,0,0,97.06,96.95Z" fill="#68e1fd"></path><polygon points="103.45 94.91 103.45 166.92 230.06 92.49 230.06 20.27 103.45 94.91" fill="#fff"></polygon><polygon points="103.45 137.28 229.92 64.76 230.06 20.27 103.45 94.91 103.45 137.28" fill="#68e1fd" opacity="0.47"></polygon><path d="M219.51,46.49a4.08,4.08,0,0,1,.85-.4c1.34-.44,2,.38,2.27,1.94a9.26,9.26,0,0,1,.1,1.53c0,2.06,0,4.12-.08,6.19V56l-2.77,1.67v-.29c0-1.83.05-3.67.06-5.5a7,7,0,0,0-.09-1.23c-.12-.65-.42-1-1-.76a2,2,0,0,0-.3.15,3.35,3.35,0,0,0-1.25,1.67,4.39,4.39,0,0,0-.28,1.65l-.07,5.78v.3l-2.77,1.67.14-11.16,2.75-1.66c0,.49,0,1,0,1.46l.07,0,0-.15A6.15,6.15,0,0,1,219.51,46.49Z" fill="#fff"></path><path d="M211.51,46.22a.9.9,0,0,1,1.12-.05c.41.33.48,1,.26,1.86A3.43,3.43,0,0,1,211.64,50l-.21.15c-1.12.69-1.81-.12-1.46-1.68a3.43,3.43,0,0,1,1-1.83A3.49,3.49,0,0,1,211.51,46.22Z" fill="#fff"></path><path d="M210,52.51l2.77-1.67L212.62,62l-2.76,1.66C209.91,60,210,56.24,210,52.51Z" fill="#fff"></path><path d="M222.66,35.54c2-1.18,3.53,0,3.5,2.61l-.21,16.7a8.94,8.94,0,0,1-3.58,6.88l-12.49,7.53c-2,1.18-3.53,0-3.49-2.62l.21-16.69a8.94,8.94,0,0,1,3.58-6.88Zm0,20.22c0-2.07.06-4.14.08-6.19a9.26,9.26,0,0,0-.1-1.53c-.24-1.56-.92-2.38-2.27-1.94a4.08,4.08,0,0,0-.85.4,6.15,6.15,0,0,0-2.35,3.09l0,.15-.07,0c0-.49,0-1,0-1.46l-2.75,1.66-.14,11.16,2.77-1.67v-.3l.07-5.78a4.39,4.39,0,0,1,.28-1.65A3.35,3.35,0,0,1,218.55,50a2,2,0,0,1,.3-.15c.58-.23.89.11,1,.76a7,7,0,0,1,.09,1.23c0,1.83,0,3.67-.06,5.5v.29L222.65,56v-.21m-10,6.25.14-11.16L210,52.51c0,3.72-.09,7.44-.14,11.16L212.62,62m.26-14c.22-.86.15-1.53-.26-1.86a.9.9,0,0,0-1.12.05,3.49,3.49,0,0,0-.49.37,3.43,3.43,0,0,0-1,1.83c-.36,1.56.34,2.36,1.46,1.68l.21-.15A3.43,3.43,0,0,0,212.88,48" fill="#68e1fd"></path><ellipse cx="125.65" cy="104.91" rx="15.61" ry="11.87" transform="translate(-14.54 189.41) rotate(-70.94)" fill="#68e1fd"></ellipse><path d="M118.88,118.89c-.82-.38,1.33-12.37,7.59-13.71s8.81,7.11,8.81,7.11-3.06,5.4-7.67,7S120.55,119.67,118.88,118.89Z" fill="#ea7554"></path><ellipse cx="125.72" cy="101.51" rx="6.79" ry="4.63" transform="translate(-2.26 200.15) rotate(-76.54)" fill="#ffac99"></ellipse><path d="M133.82,105.16c-.6-2.13-1.26-1.31-1.16-3.51s-.92-10.24-7.57-8.82-6.2,8-6,8.92.69,3.13.5,3.83-1.26,4.72.58,6.55a29.83,29.83,0,0,1,2.72-4.66,43.76,43.76,0,0,1-.42-5.94,3.57,3.57,0,0,0,2.88-1.45,4.42,4.42,0,0,1,2.42-1.61c.38-.08.73-.13,1.08-.22l.38,7s3.28,1.15,4.57,3.8A6.55,6.55,0,0,0,133.82,105.16Z" fill="#3129a3"></path><path d="M123.23,104.1a2,2,0,0,0-.84-1.07.81.81,0,0,0-1.12.16c-.53.88,1.07,1.77,1.77,1.8A.47.47,0,0,0,123.23,104.1Z" fill="#ffac99"></path><path d="M129.72,100.41c-.86-.63-1.61.83-1.64,1.5a.41.41,0,0,0,.2.38l-.08.11c-.37.46.27,1.14.65.67S130.61,101.06,129.72,100.41Z" fill="#ffac99"></path><line x1="141.9" y1="90.57" x2="167.23" y2="75.64" fill="#ea7554"></line><path d="M142.66,91.87,168,76.94a1.5,1.5,0,0,0-1.51-2.59L141.14,89.28a1.5,1.5,0,0,0,1.51,2.59Z" fill="#29abe2"></path><line x1="142.63" y1="97.31" x2="181.63" y2="74.32" fill="#ea7554"></line><path d="M143.39,98.61l39-23A1.5,1.5,0,0,0,180.87,73l-39,23a1.5,1.5,0,0,0,1.51,2.59Z" fill="#29abe2"></path><line x1="143.4" y1="103.39" x2="182.39" y2="80.4" fill="#ea7554"></line><path d="M144.15,104.69l39-23a1.5,1.5,0,0,0-1.51-2.59l-39,23a1.5,1.5,0,0,0,1.51,2.59Z" fill="#29abe2"></path><polygon points="110.2 139.25 110.2 146.93 226.35 79.5 226.35 72.25 110.2 139.25" fill="#68e1fd" opacity="0.47"></polygon><polygon points="142.27 131.71 110.2 150.21 110.2 157.88 142.27 139.27 142.27 131.71" fill="#68e1fd" opacity="0.47"></polygon><polygon points="199.38 98.76 199.38 106.11 226.35 90.45 226.35 83.21 199.38 98.76" fill="#68e1fd" opacity="0.47"></polygon><polygon points="178.46 110.83 149.5 127.54 149.5 135.06 178.46 118.25 178.46 110.83" fill="#68e1fd" opacity="0.47"></polygon><path d="M325.21,168.47c-1.7.18.9,21.8,6.34,26.66s20.15,4.53,24.38-1,6-24,6-24S365,164.32,325.21,168.47Z" fill="#68e1fd"></path><ellipse cx="343.43" cy="168.9" rx="18.46" ry="7.56" fill="#2e6300"></ellipse><path d="M323.35,142.24c4.46,5.32-.18,9.46.1,17.86s14.5,9.05,14.5,9.05c-.77-6.87,10.79-11.77,10.33-19.62s-10.58-3.59-6.88-12.32,2.37-19.84-3.53-23.93c-4.37-3-9.35-9.76-11.63-13,0,.94,0,1.87,0,2.8.45,5.12-1.59,10.77-4.1,14.82-2.33,3.76-5.71,6.9-7.54,11a12.46,12.46,0,0,0-.5,1.31C312.36,137.15,319.5,137.65,323.35,142.24Z" fill="#cec300"></path><path d="M326.2,103.77q0,.69-.09,1.38a23.63,23.63,0,0,1,2.52,6c1.19,5.16-1.6,10.29-.52,15.47.93,4.49,4.18,7.87,5.83,12,2,5.14-.15,10-1,15.07-1,5.85,1.47,10.71,4.3,15.56.25.43.88,0,.63-.43a38.54,38.54,0,0,1-3.68-7.5,16.22,16.22,0,0,1-.36-8.31c.89-4.57,2.66-9.07,1.14-13.73-1.41-4.3-4.68-7.64-5.92-12-1.51-5.27,1.39-10.55.41-15.86a25.84,25.84,0,0,0-3.12-7.41Z" fill="#2e6300"></path><path d="M370.16,131.23c4.72-2.06,9.44-9.18,6-13.44s-2.57-10.56-2.57-10.56a7.89,7.89,0,0,1-4.07,4.39c-9.65,3.49-10.51,9.31-10.72,13.8s4.93,14.15-10.5,19.32-2.58,24.7-2.58,24.7l6,1.16h0c.2-.14,4.5-3.26,13.5-6.77,9.22-3.59,5.79-12.13,1.72-17.07S365.44,133.28,370.16,131.23Z" fill="#cfe217"></path><path d="M373.29,108.39c-2.41,3.73-2.89,8.24-4.07,12.47-1.28,4.6-4.11,8.11-6.37,12.17a19.79,19.79,0,0,0-2.27,6.05c-.43,2.33-.47,4.72-.69,7.08a19,19,0,0,1-2.11,7.47,44.31,44.31,0,0,1-4.2,6c-2.56,3.28-5.19,6.92-5.72,11.16l.76,0c.56-4.17,3.23-7.71,5.75-10.93,2.65-3.38,5.2-6.84,6-11.25.84-4.87.38-9.73,2.68-14.24,1.94-3.79,4.75-7,6.24-11.08,1.76-4.77,1.89-10.14,4.69-14.47C374.21,108.36,373.56,108,373.29,108.39Z" fill="#2e6300"></path><path d="M345,170.74c-2.69-6.46-1.24-15.3,3.25-21.21,4.71-6.21,7.51-12,4.29-18.62a28.27,28.27,0,0,1-2.79-12.9c-4.72,10.11-9.44,13.7-8.39,19.21s-.19,8-3.46,16.5c-3,7.89,1.9,15.62,2.66,16.74Q342.81,170.67,345,170.74Z" fill="#9abc0c"></path><path d="M342.35,170.61l.84.06c-2.34-6.22-3.49-12.88-.41-19.16,1.47-3,3.44-5.68,4.79-8.73,1.46-3.3,1.55-6.42,1.2-10a34.11,34.11,0,0,1,1.44-14,.38.38,0,1,0-.72-.21,33.39,33.39,0,0,0-1.64,12c.11,2.15.5,4.3.41,6.46a15,15,0,0,1-1.5,5.69c-1.46,3.15-3.53,5.93-5,9.09a19.82,19.82,0,0,0-1.54,10.74A35.21,35.21,0,0,0,342.35,170.61Z" fill="#2e6300"></path><path d="M195,110.6l-.87-23.18L175.8,98a.29.29,0,0,0-.16.27l.43,23.41L195,110.6" fill="#68e1fd"></path><path d="M192.16,102c-3.12.88-2,4.33-4.28,6.17-2.72,2.24-3.75-4.11-7.09-3.71-4,.48-4.78,13.87-4.78,13.87l.06,3.34L195,110.6l-.13-7.23A3.23,3.23,0,0,0,192.16,102Z" fill="#053855" opacity="0.3"></path><path d="M192.15,253.75l50.74-30.17-9.43-1.18-9.55,3.4-20.61-9.1-37.13,21.24A232.85,232.85,0,0,1,192.15,253.75Z" fill="url(#linear-gradient-3)"></path><path d="M239.14,107.66s8.69,10.09,9,17.31-10,20-10,20l-6.64-10.48s8.65-8.94,0-15.82c0,0-3-11.6,7.61-11" fill="#ce5438"></path><path d="M235.84,206.21s3.27,4.53,3,7.18-4.43,7.12-5.38,9-1.2,2.72,0,4.11,11.39-7.5,11.62-8.93-1.42-6.87-1.42-6.87l4.52,5.72,3.3-1.94-7-11.77" fill="#15156d"></path><path d="M234.55,226.65c.28-.27,8.35-3.07,8.35-3.07s3.79-3.95,3.69-5.45-1.5-7.48-2.92-7.42-1.57,8-1.57,8Z" fill="#040411"></path><path d="M224.95,213.72l-1,12.08s-2.61,1.91-3.25,1.74-2.56-.66-2.58-1,.92-8.54.66-8.75-4.27,6.28-5.52,6.42-10.83-5.43-9.91-7.55,5.55-1,7.83-1,5.44-1.33,7.15-5.24" fill="#15156d"></path><path d="M218.88,181,213,212s3.38,4.41,15.45,3.86l9-22" fill="#cec300"></path><path d="M216.3,132.42s-9,13.15-6.24,34.44c2.46,18.87,21.3,41.11,21.3,41.11s5.64,2.49,17.37-8.61l-12.95-20.58s12.62-29.23-2.28-47.8" fill="#cec300"></path><path d="M190.9,107.19a1.32,1.32,0,0,0-2.63,0c0,.89,0,1.77,0,2.66-.1-.19-.2-.38-.3-.57a38,38,0,0,1-2.29-7.6c-.32-1.69-2.76-.93-2.54.7a26.4,26.4,0,0,0,.8,3.78l-.26-.11a1.73,1.73,0,0,0-2.21,1.22,2.44,2.44,0,0,0-.07,1.25l-.2,0a1.9,1.9,0,0,0-1,2.93,1.75,1.75,0,0,0-.63,1,2.54,2.54,0,0,0,1.13,2.41c.91.75,1.89,1.73,2.72,2.54,1.08,1.06,2.31,2.11,3.33,3s2.69-1.95,2.7-2.89a1.2,1.2,0,0,0,1.57-1.22Q190.8,111.74,190.9,107.19Z" fill="#ffac99"></path><path d="M185.64,110q-.93-1.94-1.72-3.94c-.11-.28-.57-.16-.46.13q.81,2.06,1.77,4.06C185.36,110.51,185.77,110.27,185.64,110Z" fill="#af594a"></path><path d="M217.67,103.38s-4.39,4-6.09,6.72-8.52,10.27-11.32,8-7.78-6.59-7.78-6.59-7.1,4.88-6.36,10c0,0,6.3,12.88,16.13,10S214.51,125,214.51,125l1.48,8.38s12.19,3.82,17.84-1.85c0,0,3.71-24.06,1-27.66" fill="#ea7554"></path><path d="M216.31,88.81c-.09.28-.3,9,2.66,9.84s8-1.24,9.32-4-.56-11.58-5.24-12.09S217.14,86.26,216.31,88.81Z" fill="#ffac99"></path><path d="M239.3,102.58c-.84-1.92-2.22-3-1.89-5.22.25-1.75.7-3.47.09-5.2s-2.14-2.61-3.58-3.67a9.16,9.16,0,0,1-1.17-1l-.31-.52c-.86-1.46-1.48-3.23-2.64-4.48a7.76,7.76,0,0,0-4.23-2.16,12.59,12.59,0,0,0-9.65,2.21s-2.55,2.45-1.75,5.07,4,1.66,5.74,2.85c2,1.32.72,3.84-.11,5.45a8.37,8.37,0,0,0-.87,4,5.23,5.23,0,0,1-1.27,3.52c-.93,1.28-2,2.61-2,4.26-.14,3.24,3.28,10.06,13.09,7.52.63-.16,1.29-.35,1.95-.58a17,17,0,0,0,5.78-2.86C239.14,109.61,240.74,105.88,239.3,102.58Z" fill="#754c24"></path><path d="M217.68,187.38S228,205.24,231.36,208l-2.87,7.86S216.51,199,217.68,187.38Z" fill="#9b8f00"></path><path d="M235.57,177.82a56.24,56.24,0,0,1-5.38-22.2c0-.61-1-.61-1,0a57.45,57.45,0,0,0,5.51,22.68C235,178.86,235.83,178.37,235.57,177.82Z" fill="#9b8f00"></path></svg>